<mxfile host="app.diagrams.net" agent="Mozilla/5.0 (Windows NT 10.0; Win64; x64) AppleWebKit/537.36 (KHTML, like Gecko) Chrome/129.0.0.0 Safari/537.36" version="24.7.17">
  <diagram name="Página-1" id="1C6hqnFKadjGum2JF_AS">
    <mxGraphModel dx="836" dy="478" grid="1" gridSize="10" guides="1" tooltips="1" connect="1" arrows="1" fold="1" page="1" pageScale="1" pageWidth="827" pageHeight="1169" math="0" shadow="0">
      <root>
        <mxCell id="0" />
        <mxCell id="1" parent="0" />
        <mxCell id="gNWGFvqJquYkcUzC7ZFq-2" value="Vertical Container" style="swimlane;whiteSpace=wrap;html=1;" vertex="1" parent="1">
          <mxGeometry x="40" y="10" width="250" height="510" as="geometry" />
        </mxCell>
        <mxCell id="gNWGFvqJquYkcUzC7ZFq-1" value="" style="ellipse;whiteSpace=wrap;html=1;aspect=fixed;strokeColor=#000000;fillColor=#050505;" vertex="1" parent="gNWGFvqJquYkcUzC7ZFq-2">
          <mxGeometry x="110" y="50" width="30" height="30" as="geometry" />
        </mxCell>
        <mxCell id="gNWGFvqJquYkcUzC7ZFq-4" value="Sistema vincula a conta do usuário com o seu e-mail." style="rounded=1;whiteSpace=wrap;html=1;" vertex="1" parent="1">
          <mxGeometry x="440" y="80" width="120" height="60" as="geometry" />
        </mxCell>
        <mxCell id="gNWGFvqJquYkcUzC7ZFq-6" value="Sistema redireciona usuário para a página de Cadastro" style="rounded=1;whiteSpace=wrap;html=1;" vertex="1" parent="1">
          <mxGeometry x="610" y="40" width="140.01" height="60" as="geometry" />
        </mxCell>
        <mxCell id="gNWGFvqJquYkcUzC7ZFq-7" value="Usuário possui conta?" style="rhombus;whiteSpace=wrap;html=1;" vertex="1" parent="1">
          <mxGeometry x="330" y="150" width="120" height="120" as="geometry" />
        </mxCell>
      </root>
    </mxGraphModel>
  </diagram>
</mxfile>
